<svg height="512" viewBox="0 0 515.283 515.283" width="512" xmlns="http://www.w3.org/2000/svg"><path d="M458.028 314.894c-15.293 0-29.67-5.955-40.483-16.768-10.814-10.814-16.771-25.192-16.771-40.485 0-15.292 5.957-29.67 16.771-40.483 10.814-10.814 25.191-16.769 40.483-16.769 15.293 0 29.671 5.956 40.485 16.769 10.814 10.815 16.771 25.192 16.771 40.483 0 15.294-5.957 29.672-16.771 40.485-10.814 10.814-25.191 16.768-40.485 16.768zm-200.387 0c-15.294 0-29.671-5.955-40.485-16.768-10.814-10.814-16.769-25.192-16.769-40.485s5.956-29.67 16.769-40.483c10.815-10.814 25.192-16.769 40.485-16.769s29.671 5.956 40.485 16.769c10.814 10.814 16.768 25.191 16.768 40.483 0 15.294-5.955 29.672-16.768 40.485-10.814 10.814-25.191 16.768-40.485 16.768zm-200.388 0c-15.291 0-29.668-5.955-40.481-16.765C5.956 287.314 0 272.935 0 257.642s5.956-29.672 16.771-40.485c10.816-10.814 25.193-16.768 40.483-16.768 15.292 0 29.669 5.956 40.483 16.768 10.815 10.812 16.771 25.191 16.771 40.485 0 15.296-5.957 29.675-16.773 40.488-10.813 10.81-25.189 16.764-40.482 16.764z"/></svg>