<svg clip-rule="evenodd" fill-rule="evenodd" height="512" stroke-linejoin="round" stroke-miterlimit="2" viewBox="0 0 24 24" width="512" xmlns="http://www.w3.org/2000/svg"><path d="M19.75 6a.75.75 0 0 0-.75-.75H5a.75.75 0 0 0-.75.75v13.5a3.247 3.247 0 0 0 3.25 3.25h9a3.247 3.247 0 0 0 3.25-3.25V6zm-1.5.75V19.5c0 .464-.184.909-.513 1.237a1.746 1.746 0 0 1-1.237.513h-9c-.464 0-.909-.184-1.237-.513A1.746 1.746 0 0 1 5.75 19.5V6.75z"/><path d="M16.5 6.75a.75.75 0 0 0 .75-.75V4c0-.729-.29-1.429-.805-1.945A2.755 2.755 0 0 0 14.5 1.25h-5c-.729 0-1.429.29-1.945.805A2.755 2.755 0 0 0 6.75 4v2c0 .414.336.75.75.75zm-.75-1.5h-7.5V4A1.252 1.252 0 0 1 9.5 2.75h5A1.252 1.252 0 0 1 15.75 4z"/><path d="M20 5.25H4a.75.75 0 0 0 0 1.5h16a.75.75 0 0 0 0-1.5zM8.75 10.5v7a.75.75 0 0 0 1.5 0v-7a.75.75 0 0 0-1.5 0zM13.75 10.5v7a.75.75 0 0 0 1.5 0v-7a.75.75 0 0 0-1.5 0z"/></svg>